<mxfile host="app.diagrams.net" modified="2021-02-01T07:09:35.101Z" agent="5.0 (Windows NT 10.0; Win64; x64) AppleWebKit/537.36 (KHTML, like Gecko) Chrome/86.0.4240.111 Safari/537.36" etag="uyaAqH4GSAw82JrAJLDF" version="13.10.0" type="github">
  <diagram name="Page-1" id="c7558073-3199-34d8-9f00-42111426c3f3">
    <mxGraphModel dx="1422" dy="1931" grid="1" gridSize="10" guides="1" tooltips="1" connect="1" arrows="1" fold="1" page="1" pageScale="1" pageWidth="826" pageHeight="1169" background="#ffffff" math="0" shadow="0">
      <root>
        <mxCell id="0" />
        <mxCell id="1" parent="0" />
        <mxCell id="ZftnwTE5uSLvCgGLiOcV-122" value="" style="edgeStyle=orthogonalEdgeStyle;rounded=0;orthogonalLoop=1;jettySize=auto;html=1;exitX=0.5;exitY=1;exitDx=0;exitDy=0;strokeColor=#FF3333;" parent="1" source="7" target="ZftnwTE5uSLvCgGLiOcV-121" edge="1">
          <mxGeometry relative="1" as="geometry" />
        </mxCell>
        <mxCell id="7" value="&lt;p style=&quot;margin: 4px 0px 0px ; text-align: center ; text-decoration: underline ; font-size: 17px&quot;&gt;数据源&lt;/p&gt;" style="verticalAlign=middle;align=center;overflow=fill;fontSize=12;fontFamily=Helvetica;html=1;rounded=1;fontStyle=1;strokeWidth=3;fillColor=#f8cecc;strokeColor=#b85450;" parent="1" vertex="1">
          <mxGeometry x="30" y="20" width="1030" height="150" as="geometry" />
        </mxCell>
        <mxCell id="ZftnwTE5uSLvCgGLiOcV-102" value="" style="rounded=0;whiteSpace=wrap;html=1;fillColor=#fff2cc;strokeColor=#d6b656;" parent="1" vertex="1">
          <mxGeometry x="40" y="60" width="460" height="90" as="geometry" />
        </mxCell>
        <mxCell id="ZftnwTE5uSLvCgGLiOcV-103" value="轨迹" style="rounded=1;whiteSpace=wrap;html=1;" parent="1" vertex="1">
          <mxGeometry x="50" y="80" width="100" height="50" as="geometry" />
        </mxCell>
        <mxCell id="ZftnwTE5uSLvCgGLiOcV-107" value="订单" style="rounded=1;whiteSpace=wrap;html=1;" parent="1" vertex="1">
          <mxGeometry x="160" y="80" width="100" height="50" as="geometry" />
        </mxCell>
        <mxCell id="ZftnwTE5uSLvCgGLiOcV-108" value="实名制" style="rounded=1;whiteSpace=wrap;html=1;" parent="1" vertex="1">
          <mxGeometry x="270" y="80" width="100" height="50" as="geometry" />
        </mxCell>
        <mxCell id="ZftnwTE5uSLvCgGLiOcV-109" value="网点..." style="rounded=1;whiteSpace=wrap;html=1;" parent="1" vertex="1">
          <mxGeometry x="380" y="80" width="100" height="50" as="geometry" />
        </mxCell>
        <mxCell id="ZftnwTE5uSLvCgGLiOcV-110" value="mq" style="text;html=1;align=center;verticalAlign=middle;resizable=0;points=[];autosize=1;" parent="1" vertex="1">
          <mxGeometry x="250" y="60" width="30" height="20" as="geometry" />
        </mxCell>
        <mxCell id="ZftnwTE5uSLvCgGLiOcV-112" value="" style="rounded=0;whiteSpace=wrap;html=1;fillColor=#fff2cc;strokeColor=#d6b656;" parent="1" vertex="1">
          <mxGeometry x="510" y="60" width="240" height="90" as="geometry" />
        </mxCell>
        <mxCell id="ZftnwTE5uSLvCgGLiOcV-113" value="车辆gps" style="rounded=1;whiteSpace=wrap;html=1;" parent="1" vertex="1">
          <mxGeometry x="520" y="80" width="100" height="50" as="geometry" />
        </mxCell>
        <mxCell id="ZftnwTE5uSLvCgGLiOcV-114" value="外网用户数据" style="rounded=1;whiteSpace=wrap;html=1;" parent="1" vertex="1">
          <mxGeometry x="630" y="80" width="100" height="50" as="geometry" />
        </mxCell>
        <mxCell id="ZftnwTE5uSLvCgGLiOcV-117" value="定时任务拉取" style="text;html=1;align=center;verticalAlign=middle;resizable=0;points=[];autosize=1;" parent="1" vertex="1">
          <mxGeometry x="590" y="60" width="90" height="20" as="geometry" />
        </mxCell>
        <mxCell id="ZftnwTE5uSLvCgGLiOcV-118" value="其它未来可能存在的数据源，如http，ftp接口被调用触发获取到的数据" style="rounded=0;whiteSpace=wrap;html=1;fillColor=#fff2cc;strokeColor=#d6b656;" parent="1" vertex="1">
          <mxGeometry x="780" y="60" width="240" height="90" as="geometry" />
        </mxCell>
        <mxCell id="ZftnwTE5uSLvCgGLiOcV-135" style="edgeStyle=orthogonalEdgeStyle;rounded=1;jumpSize=8;orthogonalLoop=1;jettySize=auto;html=1;entryX=0.5;entryY=0;entryDx=0;entryDy=0;startSize=19;sourcePerimeterSpacing=2;endSize=10;targetPerimeterSpacing=13;strokeColor=#FF3333;" parent="1" source="ZftnwTE5uSLvCgGLiOcV-121" target="ZftnwTE5uSLvCgGLiOcV-133" edge="1">
          <mxGeometry relative="1" as="geometry" />
        </mxCell>
        <mxCell id="ZftnwTE5uSLvCgGLiOcV-121" value="sto-data-platform-service&lt;br&gt;数据检查与处理，按照数据订阅表进行转换和多份的缓存，&lt;br&gt;内部启动线程定时去查询redis" style="ellipse;whiteSpace=wrap;html=1;rounded=1;fontStyle=1;strokeColor=#b85450;strokeWidth=3;fillColor=#f8cecc;" parent="1" vertex="1">
          <mxGeometry x="307" y="330" width="476" height="170" as="geometry" />
        </mxCell>
        <mxCell id="ZftnwTE5uSLvCgGLiOcV-146" style="edgeStyle=orthogonalEdgeStyle;rounded=1;jumpSize=8;orthogonalLoop=1;jettySize=auto;html=1;entryX=0.987;entryY=0.347;entryDx=0;entryDy=0;entryPerimeter=0;startSize=19;sourcePerimeterSpacing=2;endSize=10;targetPerimeterSpacing=13;strokeColor=#FF3333;fillColor=#FFFFFF;" parent="1" source="ZftnwTE5uSLvCgGLiOcV-123" target="ZftnwTE5uSLvCgGLiOcV-121" edge="1">
          <mxGeometry relative="1" as="geometry" />
        </mxCell>
        <mxCell id="ZftnwTE5uSLvCgGLiOcV-123" value="订阅机构、&lt;br&gt;订阅数据数据类型、&lt;br&gt;订阅数据过滤条件（按城市、类型）&lt;br&gt;推送方式、&lt;br&gt;推送地址、&lt;br&gt;是否批量推送（批量推送需要缓存redis，不批量推送直接发送到mq里面）、&lt;br&gt;批量推送条数、&lt;br&gt;是否使用vpn推送&lt;br&gt;...&lt;br&gt;考虑到政府推送的平滑迁移，&lt;br&gt;完全参照政府订阅推送的字段表，&lt;br&gt;主要新添加的有：&lt;br&gt;&lt;font color=&quot;#ff3333&quot;&gt;是否批量推送&lt;/font&gt;" style="shape=note;whiteSpace=wrap;html=1;backgroundOutline=1;darkOpacity=0.05;rounded=1;fontStyle=1;strokeColor=#b85450;strokeWidth=3;fillColor=#f8cecc;" parent="1" vertex="1">
          <mxGeometry x="990" y="267.5" width="200" height="242.5" as="geometry" />
        </mxCell>
        <mxCell id="ZftnwTE5uSLvCgGLiOcV-150" style="edgeStyle=orthogonalEdgeStyle;rounded=1;jumpSize=8;orthogonalLoop=1;jettySize=auto;html=1;entryX=0.5;entryY=0;entryDx=0;entryDy=0;startSize=19;sourcePerimeterSpacing=2;endSize=10;targetPerimeterSpacing=13;strokeColor=#FF3333;fillColor=#FFFFFF;" parent="1" source="ZftnwTE5uSLvCgGLiOcV-133" target="ZftnwTE5uSLvCgGLiOcV-149" edge="1">
          <mxGeometry relative="1" as="geometry" />
        </mxCell>
        <mxCell id="ZftnwTE5uSLvCgGLiOcV-133" value="mq" style="rounded=1;whiteSpace=wrap;html=1;fillColor=#f8cecc;strokeColor=#b85450;" parent="1" vertex="1">
          <mxGeometry x="395" y="690" width="300" height="90" as="geometry" />
        </mxCell>
        <mxCell id="ZftnwTE5uSLvCgGLiOcV-134" value="redis" style="rounded=1;whiteSpace=wrap;html=1;fillColor=#f8cecc;strokeColor=#b85450;" parent="1" vertex="1">
          <mxGeometry x="7" y="560" width="300" height="112.5" as="geometry" />
        </mxCell>
        <mxCell id="ZftnwTE5uSLvCgGLiOcV-136" value="oss" style="rounded=1;whiteSpace=wrap;html=1;fillColor=#f8cecc;strokeColor=#b85450;" parent="1" vertex="1">
          <mxGeometry x="780" y="560" width="260" height="107.5" as="geometry" />
        </mxCell>
        <mxCell id="ZftnwTE5uSLvCgGLiOcV-141" value="" style="shape=flexArrow;endArrow=classic;html=1;strokeColor=#FF3333;fillColor=#FFFFFF;" parent="1" edge="1">
          <mxGeometry width="50" height="50" relative="1" as="geometry">
            <mxPoint x="307" y="440" as="sourcePoint" />
            <mxPoint x="167" y="560" as="targetPoint" />
          </mxGeometry>
        </mxCell>
        <mxCell id="ZftnwTE5uSLvCgGLiOcV-143" value="" style="shape=flexArrow;endArrow=classic;html=1;strokeColor=#FF3333;fillColor=#FFFFFF;" parent="1" edge="1">
          <mxGeometry width="50" height="50" relative="1" as="geometry">
            <mxPoint x="761" y="454" as="sourcePoint" />
            <mxPoint x="941" y="546" as="targetPoint" />
          </mxGeometry>
        </mxCell>
        <mxCell id="ZftnwTE5uSLvCgGLiOcV-144" value="ftp、sftp推送方式的&lt;br&gt;缓存文件" style="text;html=1;align=center;verticalAlign=middle;resizable=0;points=[];autosize=1;rotation=30;" parent="1" vertex="1">
          <mxGeometry x="805" y="465" width="120" height="30" as="geometry" />
        </mxCell>
        <mxCell id="ZftnwTE5uSLvCgGLiOcV-145" value="定时拉取缓存订阅表数据信息" style="text;html=1;align=center;verticalAlign=middle;resizable=0;points=[];autosize=1;" parent="1" vertex="1">
          <mxGeometry x="805" y="360" width="170" height="20" as="geometry" />
        </mxCell>
        <mxCell id="ZftnwTE5uSLvCgGLiOcV-148" value="①数据推送任务通过mq发给push端进行redis、或者oss拉取推送。&lt;br&gt;②数据的二次处理处理，如整体加密转换，ftp、sftp转换文件转换处理任务，&lt;br&gt;该任务发出后依然由handler端进行消费和处理" style="text;html=1;align=center;verticalAlign=middle;resizable=0;points=[];autosize=1;" parent="1" vertex="1">
          <mxGeometry x="330" y="591.25" width="420" height="50" as="geometry" />
        </mxCell>
        <mxCell id="ZftnwTE5uSLvCgGLiOcV-149" value="sto-data-platform-service-push&lt;br&gt;接收到推送任务，去redis或者oss拉取数据或者文件然后进行推送，&lt;br&gt;推送客户端需要支持，http、https、ftp、sftp、mqtt" style="ellipse;whiteSpace=wrap;html=1;rounded=1;fontStyle=1;strokeColor=#b85450;strokeWidth=3;fillColor=#f8cecc;" parent="1" vertex="1">
          <mxGeometry x="307" y="910" width="476" height="170" as="geometry" />
        </mxCell>
        <mxCell id="ZftnwTE5uSLvCgGLiOcV-152" value="" style="shape=flexArrow;endArrow=classic;html=1;strokeColor=#FF3333;fillColor=#FFFFFF;" parent="1" edge="1">
          <mxGeometry width="50" height="50" relative="1" as="geometry">
            <mxPoint x="190" y="700" as="sourcePoint" />
            <mxPoint x="310" y="910" as="targetPoint" />
          </mxGeometry>
        </mxCell>
        <mxCell id="ZftnwTE5uSLvCgGLiOcV-155" style="edgeStyle=orthogonalEdgeStyle;rounded=1;jumpSize=8;orthogonalLoop=1;jettySize=auto;html=1;entryX=1.003;entryY=0.567;entryDx=0;entryDy=0;entryPerimeter=0;startSize=19;sourcePerimeterSpacing=2;endSize=10;targetPerimeterSpacing=13;strokeColor=#FF3333;fillColor=#FFFFFF;" parent="1" source="ZftnwTE5uSLvCgGLiOcV-154" target="7" edge="1">
          <mxGeometry relative="1" as="geometry" />
        </mxCell>
        <mxCell id="ZftnwTE5uSLvCgGLiOcV-154" value="常规重要的数据源进行硬编码：&lt;br&gt;轨迹、订单、实名制、网点、员工，方便进行开发和维护&lt;br&gt;&lt;br&gt;支持动态扩展数据源，&lt;br&gt;数据源表：&lt;br&gt;数据源的类型-mq，定时任务、&lt;br&gt;mq配置、&lt;br&gt;定时任务拉取http配置、&lt;br&gt;数据源的逻辑脚本、&lt;br&gt;" style="shape=note;whiteSpace=wrap;html=1;backgroundOutline=1;darkOpacity=0.05;rounded=1;fontStyle=1;strokeColor=#b85450;strokeWidth=3;fillColor=#f8cecc;" parent="1" vertex="1">
          <mxGeometry x="1139" y="-16.25" width="200" height="242.5" as="geometry" />
        </mxCell>
        <mxCell id="ZftnwTE5uSLvCgGLiOcV-157" value="" style="endArrow=classic;html=1;strokeColor=#FF3333;fillColor=#FFFFFF;" parent="1" edge="1">
          <mxGeometry width="50" height="50" relative="1" as="geometry">
            <mxPoint x="570" y="690" as="sourcePoint" />
            <mxPoint x="570" y="500" as="targetPoint" />
            <Array as="points" />
          </mxGeometry>
        </mxCell>
        <mxCell id="ZftnwTE5uSLvCgGLiOcV-191" value="Text" style="edgeLabel;html=1;align=center;verticalAlign=middle;resizable=0;points=[];" parent="ZftnwTE5uSLvCgGLiOcV-157" vertex="1" connectable="0">
          <mxGeometry x="-0.3368" y="2" relative="1" as="geometry">
            <mxPoint y="1" as="offset" />
          </mxGeometry>
        </mxCell>
        <mxCell id="ZftnwTE5uSLvCgGLiOcV-160" value="临时数据缓存，二次处理后可直接通过http、https发送的数据缓存" style="text;html=1;align=center;verticalAlign=middle;resizable=0;points=[];autosize=1;rotation=-45;" parent="1" vertex="1">
          <mxGeometry x="30" y="480" width="360" height="20" as="geometry" />
        </mxCell>
        <mxCell id="ZftnwTE5uSLvCgGLiOcV-161" value="http、https直接数据读取" style="text;html=1;align=center;verticalAlign=middle;resizable=0;points=[];autosize=1;rotation=60;" parent="1" vertex="1">
          <mxGeometry x="210" y="780" width="150" height="20" as="geometry" />
        </mxCell>
        <mxCell id="ZftnwTE5uSLvCgGLiOcV-192" value="" style="shape=flexArrow;endArrow=classic;html=1;strokeColor=#FF3333;fillColor=#FFFFFF;" parent="1" edge="1">
          <mxGeometry width="50" height="50" relative="1" as="geometry">
            <mxPoint x="720" y="872.5" as="sourcePoint" />
            <mxPoint x="870" y="672.5" as="targetPoint" />
          </mxGeometry>
        </mxCell>
        <mxCell id="ZftnwTE5uSLvCgGLiOcV-193" value="推送前进行数据备份，或者问题文件备份" style="text;html=1;align=center;verticalAlign=middle;resizable=0;points=[];autosize=1;rotation=-55;" parent="1" vertex="1">
          <mxGeometry x="650" y="770" width="230" height="20" as="geometry" />
        </mxCell>
        <mxCell id="NzcZp6-nbeALY47SKJX1-7" value="" style="whiteSpace=wrap;html=1;aspect=fixed;" parent="1" vertex="1">
          <mxGeometry x="45" y="-1160" width="850" height="850" as="geometry" />
        </mxCell>
        <mxCell id="gqbabZBrhBg97Sdv39gQ-11" value="" style="edgeStyle=orthogonalEdgeStyle;rounded=0;orthogonalLoop=1;jettySize=auto;html=1;" edge="1" parent="1" source="gqbabZBrhBg97Sdv39gQ-9" target="gqbabZBrhBg97Sdv39gQ-10">
          <mxGeometry relative="1" as="geometry" />
        </mxCell>
        <mxCell id="gqbabZBrhBg97Sdv39gQ-17" value="" style="edgeStyle=orthogonalEdgeStyle;rounded=0;orthogonalLoop=1;jettySize=auto;html=1;" edge="1" parent="1" source="gqbabZBrhBg97Sdv39gQ-9" target="gqbabZBrhBg97Sdv39gQ-16">
          <mxGeometry relative="1" as="geometry" />
        </mxCell>
        <mxCell id="gqbabZBrhBg97Sdv39gQ-47" value="最终攒批数据写入oss" style="edgeLabel;html=1;align=center;verticalAlign=middle;resizable=0;points=[];" vertex="1" connectable="0" parent="gqbabZBrhBg97Sdv39gQ-17">
          <mxGeometry x="-0.1673" y="1" relative="1" as="geometry">
            <mxPoint as="offset" />
          </mxGeometry>
        </mxCell>
        <mxCell id="gqbabZBrhBg97Sdv39gQ-36" value="" style="edgeStyle=orthogonalEdgeStyle;rounded=0;orthogonalLoop=1;jettySize=auto;html=1;" edge="1" parent="1" source="gqbabZBrhBg97Sdv39gQ-9" target="gqbabZBrhBg97Sdv39gQ-35">
          <mxGeometry relative="1" as="geometry" />
        </mxCell>
        <mxCell id="gqbabZBrhBg97Sdv39gQ-9" value="sto-government-handle" style="rounded=0;whiteSpace=wrap;html=1;" vertex="1" parent="1">
          <mxGeometry x="325" y="-1050" width="290" height="60" as="geometry" />
        </mxCell>
        <mxCell id="gqbabZBrhBg97Sdv39gQ-13" value="" style="edgeStyle=orthogonalEdgeStyle;rounded=0;orthogonalLoop=1;jettySize=auto;html=1;" edge="1" parent="1" source="gqbabZBrhBg97Sdv39gQ-10" target="gqbabZBrhBg97Sdv39gQ-12">
          <mxGeometry relative="1" as="geometry" />
        </mxCell>
        <mxCell id="gqbabZBrhBg97Sdv39gQ-10" value="mq" style="ellipse;whiteSpace=wrap;html=1;rounded=0;fillColor=#f8cecc;strokeColor=#b85450;" vertex="1" parent="1">
          <mxGeometry x="410" y="-900" width="120" height="80" as="geometry" />
        </mxCell>
        <mxCell id="gqbabZBrhBg97Sdv39gQ-30" value="" style="edgeStyle=orthogonalEdgeStyle;rounded=0;orthogonalLoop=1;jettySize=auto;html=1;" edge="1" parent="1" source="gqbabZBrhBg97Sdv39gQ-12" target="gqbabZBrhBg97Sdv39gQ-29">
          <mxGeometry relative="1" as="geometry" />
        </mxCell>
        <mxCell id="gqbabZBrhBg97Sdv39gQ-12" value="sto-government-push" style="whiteSpace=wrap;html=1;rounded=0;" vertex="1" parent="1">
          <mxGeometry x="325" y="-710" width="290" height="60" as="geometry" />
        </mxCell>
        <mxCell id="gqbabZBrhBg97Sdv39gQ-24" style="edgeStyle=orthogonalEdgeStyle;rounded=0;orthogonalLoop=1;jettySize=auto;html=1;entryX=1;entryY=0.5;entryDx=0;entryDy=0;exitX=0.5;exitY=1;exitDx=0;exitDy=0;" edge="1" parent="1" source="gqbabZBrhBg97Sdv39gQ-16" target="gqbabZBrhBg97Sdv39gQ-12">
          <mxGeometry relative="1" as="geometry" />
        </mxCell>
        <mxCell id="gqbabZBrhBg97Sdv39gQ-16" value="oss" style="ellipse;whiteSpace=wrap;html=1;rounded=0;" vertex="1" parent="1">
          <mxGeometry x="706" y="-890" width="120" height="80" as="geometry" />
        </mxCell>
        <mxCell id="gqbabZBrhBg97Sdv39gQ-29" value="政府、管局" style="shape=tape;whiteSpace=wrap;html=1;rounded=0;" vertex="1" parent="1">
          <mxGeometry x="410" y="-570" width="120" height="100" as="geometry" />
        </mxCell>
        <mxCell id="gqbabZBrhBg97Sdv39gQ-35" value="reids攒批缓存" style="ellipse;whiteSpace=wrap;html=1;rounded=0;" vertex="1" parent="1">
          <mxGeometry x="80" y="-1060" width="120" height="80" as="geometry" />
        </mxCell>
        <mxCell id="gqbabZBrhBg97Sdv39gQ-37" value="lua脚本写入" style="text;html=1;strokeColor=none;fillColor=none;align=center;verticalAlign=middle;whiteSpace=wrap;rounded=0;" vertex="1" parent="1">
          <mxGeometry x="225" y="-1050" width="80" height="20" as="geometry" />
        </mxCell>
        <mxCell id="gqbabZBrhBg97Sdv39gQ-45" value="" style="edgeStyle=orthogonalEdgeStyle;rounded=0;orthogonalLoop=1;jettySize=auto;html=1;entryX=0.25;entryY=1;entryDx=0;entryDy=0;exitX=0.5;exitY=1;exitDx=0;exitDy=0;" edge="1" parent="1" source="gqbabZBrhBg97Sdv39gQ-35" target="gqbabZBrhBg97Sdv39gQ-9">
          <mxGeometry relative="1" as="geometry">
            <mxPoint x="305" y="-930" as="sourcePoint" />
            <mxPoint x="180" y="-930" as="targetPoint" />
          </mxGeometry>
        </mxCell>
        <mxCell id="gqbabZBrhBg97Sdv39gQ-46" value="消费数据" style="edgeLabel;html=1;align=center;verticalAlign=middle;resizable=0;points=[];" vertex="1" connectable="0" parent="gqbabZBrhBg97Sdv39gQ-45">
          <mxGeometry x="-0.1285" relative="1" as="geometry">
            <mxPoint as="offset" />
          </mxGeometry>
        </mxCell>
        <mxCell id="gqbabZBrhBg97Sdv39gQ-48" value="推送任务" style="text;html=1;strokeColor=none;fillColor=none;align=center;verticalAlign=middle;whiteSpace=wrap;rounded=0;" vertex="1" parent="1">
          <mxGeometry x="440" y="-950" width="60" height="20" as="geometry" />
        </mxCell>
        <mxCell id="gqbabZBrhBg97Sdv39gQ-49" value="推送任务" style="text;html=1;strokeColor=none;fillColor=none;align=center;verticalAlign=middle;whiteSpace=wrap;rounded=0;" vertex="1" parent="1">
          <mxGeometry x="440" y="-780" width="60" height="20" as="geometry" />
        </mxCell>
        <mxCell id="gqbabZBrhBg97Sdv39gQ-50" value="拉取数据" style="text;html=1;strokeColor=none;fillColor=none;align=center;verticalAlign=middle;whiteSpace=wrap;rounded=0;" vertex="1" parent="1">
          <mxGeometry x="724" y="-745" width="84" height="20" as="geometry" />
        </mxCell>
      </root>
    </mxGraphModel>
  </diagram>
</mxfile>
